# xmcd
#
# Track frame offsets:
#	150
#	30068
#	57996
#	92637
#	118245
#	142296
#	176309
#	207021
#	233501
#
# Disc length: 3471 seconds
#
# Revision: 0
# Processed by: cddbd v1.5.2PL0 Copyright (c) Steve Scherf et al.
# Submitted via: EasyCDDAExtractor 9.0.0.1
#
DISCID=6f0d8d09
DTITLE=Sergeo Polo - Amour a deux, Amour a vie
DYEAR=2010
DGENRE=Makossa
TTITLE0=Lili
TTITLE1=Suzy
TTITLE2=Amour a deux, Amour a vie
TTITLE3=Lak-sse Mba
TTITLE4=Man Bassa
TTITLE5=Bounandjoa Oli
TTITLE6=Sango Loba
TTITLE7=J'ai droit au bonheur
TTITLE8=Allo Gabon
EXTD=
EXTT0=
EXTT1=
EXTT2=
EXTT3=
EXTT4=
EXTT5=
EXTT6=
EXTT7=
EXTT8=
PLAYORDER=
